<svg xmlns="http://www.w3.org/2000/svg" xmlns:xlink="http://www.w3.org/1999/xlink" id="e8u7aLbxHEo1" viewBox="0 0 900 900"><style><![CDATA[#e8u7aLbxHEo4_tr {animation: e8u7aLbxHEo4_tr__tr 5000ms linear infinite normal forwards}@keyframes e8u7aLbxHEo4_tr__tr { 0% {transform: translate(450.000033px,450.000071px) rotate(0deg)} 50% {transform: translate(450.000033px,450.000071px) rotate(90deg)} 100% {transform: translate(450.000033px,450.000071px) rotate(180deg)}}]]></style><rect id="e8u7aLbxHEo2" width="272.215" height="272.215" rx="0" ry="0" transform="matrix(3.30621 0 0 3.306208 0.000023 0.000295)" clip-rule="evenodd" fill="none" fill-rule="evenodd" stroke="none" stroke-width="1" stroke-linejoin="round" stroke-miterlimit="2"></rect><path id="e8u7aLbxHEo3" d="M133.66,154.391L133.66,117.417L126.184,117.417L126.184,187.086C126.688,187.623,127.938,188.803,130.021,189.841C131.587,190.622,132.852,190.94,133.66,191.068L133.66,166.26L138.582,153.831L138.584,153.859L138.584,191.071C139.35,190.941,140.543,190.621,142.107,189.841C144.25,188.773,145.538,187.604,146.059,187.071L146.059,117.417L138.584,117.417L138.584,141.957L133.66,154.391ZM177.382,115.988C180.163,113.463,183.636,111.856,187.316,111.401L187.316,99.227L84.927,99.227L84.927,111.401C88.623,111.858,92.104,113.469,94.861,115.986L94.861,109.436L177.382,109.436L177.382,115.988Z" transform="matrix(3.306209 0 0 3.306208 -0.032155 -20.851312)" clip-rule="evenodd" fill="rgb(36,39,43)" fill-rule="evenodd" stroke="none" stroke-width="1" stroke-linejoin="round" stroke-miterlimit="2"></path><g id="e8u7aLbxHEo4_tr" transform="translate(450.000033,450.000071) rotate(0)"><path id="e8u7aLbxHEo4" d="M125.658,245.899L126.489,245.926C127.563,243.569,129.839,241.978,132.435,242.062C135.946,242.175,138.695,245.278,138.575,249.017C138.456,252.714,135.513,255.656,132.002,255.543C129.343,255.458,127.174,253.745,126.295,251.326L125.464,251.299C126.37,254.156,128.883,256.212,131.978,256.312C135.924,256.438,139.211,253.175,139.343,249.042C139.477,244.887,136.407,241.42,132.46,241.293C129.448,241.196,126.787,243.107,125.658,245.899ZM154.418,255.689L155.178,255.571L152.804,240.292L152.044,240.41L154.418,255.689ZM114.706,250.595C116.115,250.994,117.409,250.805,118.467,250.136C118.797,249.916,119.077,249.625,119.318,249.306L119.03,251.07L119.809,251.198L121.536,240.635L120.757,240.507L119.714,246.886C119.533,247.994,118.955,248.952,118.085,249.505C117.325,250.034,116.195,250.249,114.82,249.898L114.706,250.595ZM157.595,239.526C157.858,239.888,158.195,240.617,158.328,241.141L159.823,247.001C160.321,248.954,162.099,249.702,164.697,249.039C167.033,248.444,168.311,246.981,168.302,245.01L167.537,245.205C167.453,246.728,166.405,247.832,164.512,248.314C162.981,248.705,161.056,248.724,160.568,246.811C160.244,245.542,161.713,244.91,163.952,244.103C166.116,243.337,168.173,242.233,167.572,239.877C167.063,237.883,164.879,237.475,163.066,237.937C161.012,238.461,159.606,239.592,159.078,240.971L159.027,240.769C158.863,240.125,158.639,239.667,158.36,239.331L157.595,239.526ZM102.605,241.937C101.875,244.538,103.241,247.909,106.336,248.726C109.189,249.48,112.148,247.639,112.944,244.625C113.74,241.611,112.036,238.624,109.082,237.844C106.651,237.201,104.659,237.986,103.346,240.026L104.13,240.233C104.993,238.999,106.454,237.945,108.886,238.587C111.397,239.251,112.881,241.771,112.19,244.469L102.605,241.937ZM111.913,245.191C110.982,247.331,108.728,248.541,106.538,247.963C104.367,247.389,102.985,245.218,103.212,242.892L111.913,245.191ZM176.026,244.443L173.313,245.435L173.577,246.157L176.29,245.165L177.075,247.313L177.798,247.049L177.013,244.901L178.379,244.402L178.115,243.68L176.749,244.179L174.608,238.323C173.787,236.078,171.997,235.117,169.902,236.105L170.145,236.768C172.029,235.991,173.258,236.869,173.886,238.587L176.026,244.443ZM184.115,246.023L184.818,245.712L184.046,243.963L183.343,244.273L184.115,246.023ZM159.602,243.025C159.042,240.83,161.021,239.253,163.256,238.682C164.283,238.421,166.335,238.391,166.771,240.102C167.136,241.532,166.289,242.499,163.697,243.439C162.298,243.924,160.824,244.451,160.208,245.401L159.602,243.025ZM92.01,232.074C92.007,232.522,91.844,233.308,91.641,233.809L89.363,239.411C88.603,241.279,89.589,242.936,92.073,243.946C94.306,244.854,96.204,244.437,97.367,242.846L96.635,242.548C95.663,243.723,94.165,243.989,92.355,243.253C90.892,242.658,89.331,241.53,90.075,239.701C90.568,238.488,92.125,238.852,94.406,239.533C96.602,240.201,98.912,240.535,99.828,238.282C100.603,236.376,99.088,234.751,97.355,234.046C95.391,233.248,93.589,233.322,92.345,234.118L92.424,233.925C92.674,233.309,92.766,232.808,92.741,232.372L92.01,232.074ZM182.612,242.619L183.316,242.309L178.994,232.517L178.29,232.828L182.612,242.619ZM82.287,238.225L79.737,236.867L79.376,237.546L81.926,238.903L80.852,240.921L81.53,241.283L82.605,239.265L83.889,239.948L84.25,239.269L82.966,238.586L85.895,233.082C87.018,230.972,86.539,228.998,84.405,228.098L84.073,228.722C85.91,229.605,86.076,231.106,85.217,232.721L82.287,238.225ZM188.941,239.756L189.609,239.375L188.363,237.191C189.938,238.231,191.928,238.364,193.697,237.355C196.26,235.893,197.081,232.507,195.536,229.798C194.012,227.126,190.69,226.126,188.127,227.588C186.358,228.597,185.459,230.377,185.542,232.244L184.451,230.33C183.02,227.821,183.628,225.321,186.011,223.962C187.798,222.942,189.621,223.075,190.999,224.275L191.703,223.874C190.052,222.279,187.815,222.048,185.63,223.294C182.886,224.859,182.146,227.841,183.783,230.711L188.941,239.756ZM91.547,236.081C92.4,233.983,94.929,233.889,97.066,234.758C98.047,235.158,99.716,236.352,99.05,237.988C98.494,239.355,97.238,239.63,94.595,238.847C93.181,238.406,91.683,237.954,90.623,238.353L91.547,236.081ZM72.578,237.806L73.231,238.212L74.24,236.588L73.587,236.182L72.578,237.806ZM186.943,234.699C185.563,232.28,186.225,229.582,188.518,228.274C190.721,227.018,193.561,227.887,194.868,230.179C196.196,232.508,195.508,235.413,193.306,236.669C191.013,237.977,188.343,237.155,186.943,234.699ZM74.542,234.647L75.195,235.053L80.848,225.964L80.195,225.558L74.542,234.647ZM204.743,234.444L205.371,234.001L204.271,232.438L203.642,232.88L204.743,234.444ZM63.285,226.739L63.953,227.235L72.673,221.699L69.892,231.647L70.559,232.142L73.638,221.096L72.971,220.601L63.285,226.739ZM202.601,231.402L203.23,230.959L197.068,222.207L196.439,222.65L202.601,231.402ZM205.356,225.241C208.304,228.654,211.866,229.12,214.917,226.485L218.849,223.089L209.421,212.173L205.489,215.569C202.485,218.164,202.449,221.875,205.356,225.241ZM205.938,224.738C203.303,221.687,203.318,218.461,205.992,216.151L209.342,213.258L217.765,223.009L214.414,225.903C211.693,228.253,208.615,227.836,205.938,224.738ZM56.217,213.106C54.334,215.043,53.925,218.657,56.254,220.853C58.401,222.878,61.88,222.672,64.018,220.404C66.157,218.136,66.085,214.698,63.862,212.602C62.033,210.877,59.908,210.616,57.781,211.781L58.371,212.337C59.718,211.665,61.505,211.436,63.335,213.161C65.225,214.943,65.326,217.866,63.43,219.907L56.217,213.106ZM62.842,220.409C61.003,221.845,58.444,221.832,56.796,220.278C55.163,218.739,54.984,216.171,56.295,214.236L62.842,220.409ZM39.233,194.022C35.489,196.536,34.596,200.015,36.843,203.362L39.74,207.676L51.714,199.635L48.818,195.322C46.605,192.026,42.926,191.542,39.233,194.022ZM39.662,194.66C43.009,192.413,46.21,192.817,48.179,195.75L50.647,199.425L39.949,206.608L37.482,202.933C35.477,199.948,36.263,196.943,39.662,194.66ZM232.263,192.097043C231.633,193.125043,231.944,194.486043,233.007,195.138043C234.035,195.768043,235.407,195.438043,236.037,194.411043C236.688,193.347043,236.348,191.993043,235.321,191.363043C234.257,190.712043,232.914,191.034043,232.263,192.097043ZM34.118,179.889C31.672,181.038,30.016,184.276,31.421,187.152C32.717,189.803,36.045,190.837,38.846,189.468C41.647,188.099,42.791,184.856,41.45,182.112C40.346,179.852,38.449,178.859,36.048,179.2L36.404,179.928C37.902,179.774,39.655,180.19,40.759,182.449C41.9,184.783,40.964,187.554,38.471,188.796L34.118,179.889ZM37.743,189.058C35.515,189.754,33.126,188.84,32.131,186.805C31.145,184.788,31.883,182.322,33.792,180.973L37.743,189.058ZM31.945,166.963C29.934,167.764,30.052,169.899,30.46,172.11C30.915,174.459,30.906,175.648,29.753,176.066C28.581,176.491,27.251,175.498,26.623,173.669C26.002,171.861,26.39,170.431,27.604,169.553L27.348,168.806C25.668,169.866,25.172,171.685,25.942,173.925C26.812,176.461,28.634,177.286,30.01,176.813C32.001,176.085,31.553,173.822,31.208,171.985C30.711,169.387,30.996,168.168,32.221,167.704C32.738,167.482,33.29,167.49,33.785,167.716C34.597,168.096,35.341,168.983,35.76,170.202C36.496,172.344,36.13,174.096,34.62,175.01L34.87,175.737C36.819,174.694,37.319,172.501,36.441,169.946C35.955,168.531,35.111,167.48,34.114,167.009C33.434,166.694,32.646,166.701,31.945,166.963ZM248.657,166.142C249.162,164.768,249.072,163.463,248.485,162.358C248.291,162.011,248.022,161.711,247.723,161.446L249.46,161.867L249.646,161.1L239.244,158.575L239.058,159.343L245.339,160.867C246.43,161.132,247.342,161.781,247.827,162.69C248.296,163.488,248.425,164.632,247.971,165.976L248.657,166.142ZM19.573,164.425L19.757,165.172L21.613,164.715L21.43,163.968L19.573,164.425ZM23.186,163.536L23.369,164.283L33.763,161.727L33.579,160.98L23.186,163.536ZM20.377,147.743L20.488,148.504L22.976,148.14C21.434,149.227,20.584,151.031,20.879,153.047C21.306,155.967,24.16,157.965,27.245,157.515C30.288,157.07,32.431,154.341,32.004,151.421C31.71,149.406,30.38,147.92,28.611,147.317L30.791,146.998C33.649,146.581,35.756,148.058,36.152,150.773C36.45,152.809,35.662,154.457,34.042,155.303L34.159,156.105C36.246,155.149,37.277,153.15,36.913,150.662C36.457,147.536,33.95,145.76,30.68,146.238L20.377,147.743ZM25.814,147.726C28.57,147.323,30.841,148.923,31.223,151.535C31.59,154.044,29.745,156.372,27.134,156.754C24.481,157.141,22.027,155.442,21.66,152.933C21.279,150.321,23.018,148.134,25.814,147.726ZM245.469,155.171C248.145,155.545,251.301,153.738,251.696,150.562C252.059,147.633,249.838,144.949,246.744,144.565C243.65,144.181,240.919,146.271,240.543,149.303C240.233,151.798,241.279,153.667,243.476,154.693L243.576,153.889C242.237,153.199,240.996,151.893,241.306,149.398C241.626,146.819,243.924,145.011,246.69,145.333L245.469,155.171ZM247.443,145.51C249.689,146.145,251.191,148.216,250.912,150.465C250.636,152.692,248.67,154.354,246.335,154.441L247.443,145.51ZM24.138,132.288C21.353,132.304,19.638,133.936,19.654,136.679C19.664,138.383,20.483,139.771,21.755,140.532L19.947,140.543L19.952,141.312L30.655,141.248L30.65,140.479L24.187,140.518C22.025,140.531,20.415,138.857,20.402,136.695C20.388,134.347,21.794,133.071,24.142,133.057L30.606,133.018L30.601,132.249L24.138,132.288ZM248.108,139.824C250.893,139.806,252.608,138.174,252.59,135.431C252.579,133.727,251.76,132.339,250.487,131.578L252.295,131.567L252.29,130.798L241.587,130.866L241.592,131.635L248.056,131.594C250.217,131.58,251.828,133.253,251.842,135.415C251.857,137.763,250.452,139.04,248.103,139.055L241.64,139.096L241.645,139.865L248.108,139.824ZM26.792,116.921C24.116,116.544,20.958,118.348,20.56,121.524C20.193,124.452,22.412,127.139,25.505,127.526C28.598,127.914,31.332,125.826,31.711,122.795C32.024,120.3,30.98,118.43,28.784,117.401L28.684,118.206C30.021,118.897,31.261,120.204,30.948,122.699C30.625,125.277,28.325,127.083,25.56,126.758L26.792,116.921ZM24.807,126.58C22.562,125.943,21.062,123.87,21.344,121.622C21.623,119.395,23.59,117.735,25.925,117.651L24.807,126.58ZM251.857,124.34L251.745,123.579L249.257,123.946C250.798,122.858,251.645,121.052,251.348,119.037C250.918,116.118,248.06,114.123,244.976,114.578C241.933,115.027,239.794,117.758,240.225,120.678C240.522,122.693,241.854,124.177,243.623,124.777L241.444,125.099C238.586,125.52,236.478,124.045,236.078,121.331C235.777,119.296,236.564,117.646,238.182,116.798L238.064,115.997C235.978,116.955,234.95,118.956,235.317,121.444C235.778,124.569,238.287,126.342,241.556,125.859L251.857,124.34ZM246.42,124.365C243.665,124.771,241.391,123.174,241.006,120.563C240.636,118.054,242.477,115.724,245.089,115.339C247.741,114.948,250.197,116.644,250.567,119.152C250.952,121.764,249.216,123.952,246.42,124.365ZM23.621,105.937C23.115,107.311,23.202,108.616,23.788,109.721C23.981,110.068,24.25,110.369,24.549,110.635L22.813,110.211L22.625,110.978L33.023,113.518L33.21,112.751L26.931,111.217C25.841,110.95,24.93,110.3,24.447,109.39C23.979,108.591,23.851,107.448,24.308,106.104L23.621,105.937ZM249.03,108.566L248.846,107.819L238.456,110.389L238.64,111.136L249.03,108.566ZM252.642,107.672L252.457,106.926L250.601,107.385L250.786,108.131L252.642,107.672ZM240.255,105.111C242.264,104.307,242.142,102.172,241.731,99.962C241.272,97.614,241.279,96.424,242.431,96.004C243.603,95.577,244.934,96.569,245.565,98.396C246.189,100.203,245.804,101.633,244.591,102.514L244.849,103.26C246.526,102.197,247.019,100.378,246.246,98.138C245.371,95.604,243.548,94.783,242.173,95.257C240.183,95.989,240.634,98.251,240.983,100.088C241.484,102.685,241.201,103.904,239.977,104.371C239.46,104.593,238.908,104.586,238.413,104.361C237.6,103.982,236.855,103.097,236.434,101.879C235.695,99.737,236.057,97.985,237.565,97.068L237.314,96.342C235.367,97.388,234.871,99.582,235.753,102.136C236.242,103.55,237.088,104.599,238.085,105.068C238.766,105.383,239.554,105.375,240.255,105.111ZM238.077,92.229C240.522,91.077,242.174,87.837,240.765,84.963C239.467,82.313,236.138,81.283,233.339,82.655C230.539,84.027,229.398,87.271,230.743,90.014C231.849,92.272,233.747,93.263,236.148,92.92L235.791,92.192C234.293,92.348,232.54,91.934,231.433,89.676C230.29,87.343,231.223,84.571,233.714,83.327L238.077,92.229ZM234.441,83.063C236.668,82.365,239.059,83.276,240.056,85.311C241.044,87.326,240.309,89.793,238.402,91.144L234.441,83.063ZM38.926,82.777C39.506,81.721,39.131,80.376,38.039,79.775C36.982,79.195,35.628,79.588,35.047,80.644C34.446,81.737,34.849,83.073,35.905,83.654C36.998,84.255,38.325,83.87,38.926,82.777ZM232.94,78.091C236.682,75.573,237.572,72.093,235.321,68.748L232.42,64.438L220.454,72.49L223.354,76.801C225.57,80.094,229.25,80.574,232.94,78.091ZM232.511,77.453C229.166,79.704,225.965,79.303,223.992,76.371L221.521,72.699L232.211,65.505L234.683,69.178C236.69,72.161,235.908,75.167,232.511,77.453ZM215.918,59.001C217.799,57.062,218.204,53.447,215.872,51.254C213.723,49.232,210.245,49.441,208.109,51.712C205.972,53.983,206.048,57.421,208.273,59.514C210.105,61.237,212.23,61.496,214.356,60.328L213.765,59.773C212.419,60.446,210.632,60.677,208.8,58.954C206.908,57.174,206.804,54.251,208.697,52.209L215.918,59.001ZM66.764,47.078C63.812,43.668,60.25,43.206,57.202,45.845L53.274,49.245L62.714,60.15L66.643,56.749C69.644,54.151,69.675,50.441,66.764,47.078ZM66.183,47.581C68.822,50.63,68.811,53.856,66.139,56.168L62.792,59.066L54.359,49.324L57.705,46.426C60.424,44.073,63.503,44.486,66.183,47.581ZM209.285,51.705C211.123,50.267,213.681,50.277,215.331,51.829C216.966,53.367,217.147,55.935,215.839,57.871L209.285,51.705ZM208.825,45.369L208.157,44.874L199.444,50.421L202.212,40.47L201.544,39.975L198.479,51.025L199.147,51.52L208.825,45.369ZM69.54,40.894L68.912,41.337L75.082,50.083L75.71,49.64L69.54,40.894ZM83.175,32.534L82.507,32.915L83.756,35.098C82.181,34.06,80.19,33.929,78.422,34.941C75.861,36.406,75.045,39.793,76.592,42.499C78.119,45.17,81.443,46.166,84.004,44.701C85.772,43.69,86.669,41.908,86.583,40.042L87.677,41.954C89.111,44.462,88.506,46.962,86.125,48.324C84.339,49.346,82.516,49.215,81.137,48.017L80.433,48.419C82.086,50.012,84.324,50.24,86.507,48.992C89.249,47.424,89.985,44.441,88.344,41.572L83.175,32.534ZM197.58,37.491L196.927,37.086L191.286,46.182L191.939,46.587L197.58,37.491ZM85.18,37.588C86.562,40.006,85.904,42.705,83.612,44.015C81.411,45.274,78.57,44.409,77.26,42.118C75.929,39.79,76.613,36.885,78.814,35.626C81.106,34.316,83.777,35.134,85.18,37.588ZM189.814,33.915L192.367,35.268L192.727,34.589L190.175,33.235L191.246,31.216L190.567,30.855L189.495,32.875L188.21,32.193L187.85,32.873L189.135,33.554L186.214,39.063C185.094,41.174,185.577,43.147,187.712,44.045L188.043,43.42C186.205,42.54,186.036,41.039,186.893,39.423L189.814,33.915ZM180.144,40.1C180.146,39.652,180.308,38.866,180.511,38.365L182.782,32.76C183.539,30.891,182.551,29.235,180.066,28.228C177.832,27.323,175.935,27.742,174.774,29.335L175.506,29.632C176.476,28.455,177.975,28.188,179.785,28.921C181.249,29.515,182.811,30.641,182.07,32.471C181.578,33.684,180.02,33.322,177.739,32.644C175.542,31.978,173.231,31.648,172.318,33.901C171.545,35.808,173.063,37.432,174.796,38.135C176.761,38.931,178.564,38.854,179.806,38.057L179.728,38.249C179.478,38.866,179.387,39.367,179.412,39.803L180.144,40.1ZM67.396,37.854L66.767,38.297L67.869,39.86L68.498,39.416L67.396,37.854ZM89.512,29.656L88.809,29.967L93.144,39.754L93.847,39.442L89.512,29.656ZM180.602,36.092C179.751,38.192,177.223,38.288,175.085,37.422C174.103,37.024,172.433,35.831,173.096,34.194C173.651,32.827,174.906,32.551,177.55,33.33C178.965,33.769,180.464,34.22,181.523,33.819L180.602,36.092ZM96.073,27.832L98.784,26.836L98.519,26.114L95.807,27.11L95.019,24.964L94.297,25.23L95.086,27.375L93.72,27.877L93.985,28.599L95.351,28.097L97.501,33.95C98.325,36.193,100.116,37.151,102.21,36.161L101.966,35.498C100.083,36.278,98.853,35.401,98.223,33.685L96.073,27.832ZM199.541,34.33L198.887,33.924L197.88,35.549L198.533,35.955L199.541,34.33ZM169.518,30.245C170.245,27.642,168.873,24.274,165.778,23.461C162.923,22.711,159.968,24.556,159.176,27.571C158.384,30.586,160.092,33.571,163.047,34.347C165.479,34.986,167.47,34.198,168.78,32.157L167.996,31.951C167.134,33.186,165.675,34.242,163.243,33.603C160.73,32.943,159.242,30.425,159.93,27.726L169.518,30.245ZM114.508,32.72C114.244,32.359,113.907,31.63,113.772,31.107L112.268,25.249C111.766,23.296,109.987,22.552,107.39,23.219C105.055,23.818,103.779,25.283,103.792,27.254L104.557,27.058C104.638,25.535,105.684,24.429,107.576,23.943C109.106,23.55,111.032,23.528,111.523,25.44C111.849,26.708,110.381,27.343,108.143,28.154C105.98,28.924,103.926,30.031,104.531,32.386C105.042,34.379,107.228,34.783,109.039,34.318C111.093,33.79,112.497,32.657,113.022,31.278L113.074,31.479C113.239,32.123,113.464,32.58,113.743,32.916L114.508,32.72ZM112.495,29.225C113.058,31.419,111.082,32.999,108.848,33.573C107.821,33.837,105.77,33.87,105.331,32.159C104.964,30.73,105.809,29.761,108.399,28.817C109.797,28.329,111.271,27.801,111.885,26.849L112.495,29.225ZM117.644,16.554L116.884,16.674L119.284,31.949L120.044,31.83L117.644,16.554ZM157.387,21.6C155.978,21.203,154.684,21.394,153.627,22.065C153.297,22.285,153.018,22.576,152.777,22.895L153.063,21.131L152.283,21.005L150.571,31.57L151.351,31.696L152.385,25.316C152.564,24.208,153.141,23.249,154.009,22.695C154.769,22.165,155.899,21.948,157.274,22.298L157.387,21.6ZM146.424,26.31L145.593,26.284C144.522,28.642,142.247,30.234,139.65,30.153C136.14,30.043,133.388,26.942,133.505,23.203C133.62,19.506,136.561,16.562,140.072,16.671C142.731,16.755,144.902,18.465,145.783,20.884L146.614,20.91C145.705,18.054,143.191,16,140.096,15.903C136.149,15.779,132.866,19.045,132.736,23.179C132.606,27.334,135.679,30.798,139.626,30.922C142.638,31.016,145.297,29.103,146.424,26.31ZM160.206,27.004C161.133,24.862,163.386,23.649,165.577,24.225C167.748,24.795,169.134,26.964,168.91,29.29L160.206,27.004ZM88.006,26.255L87.303,26.566L88.077,28.314L88.78,28.003L88.006,26.255Z" transform="scale(3.306209,3.306208) translate(-136.107536,-136.107574)" clip-rule="evenodd" fill="rgb(35,31,32)" stroke="none" stroke-width="1" stroke-linejoin="round" stroke-miterlimit="2"></path></g></svg>