<svg xmlns="http://www.w3.org/2000/svg" xmlns:xlink="http://www.w3.org/1999/xlink" xmlns:serif="http://www.serif.com/" width="100%" height="100%" viewBox="0 0 400 400" xml:space="preserve" style="fill-rule:evenodd;clip-rule:evenodd;stroke-linejoin:round;stroke-miterlimit:2;"><g><path d="M189.339,228.583l0,-114.348l-23.12,-0l-0,215.464c1.558,1.659 5.425,5.309 11.866,8.52c4.844,2.414 8.755,3.397 11.254,3.794l0,-76.723l21.316,-38.439l0.008,0.085l-0,115.087c2.368,-0.401 6.06,-1.393 10.896,-3.804c6.628,-3.303 10.609,-6.92 12.222,-8.566l0,-215.418l-23.118,-0l-0,75.895l-21.324,38.453Zm138.266,-118.766c8.601,-7.811 19.341,-12.782 30.724,-14.186l-0,-37.653l-316.658,-0l0,37.653c11.433,1.41 22.197,6.396 30.724,14.177l-0,-20.254l255.21,-0l0,20.263Z" style="fill-rule:nonzero;"></path></g></svg>